<mxfile host="drawio-plugin" modified="2022-10-21T20:41:03.237Z" agent="5.0 (X11; Linux x86_64) AppleWebKit/537.36 (KHTML, like Gecko) Chrome/98.0.4758.102 Safari/537.36" etag="APlJYlWKoma8YfNnp8bH" version="15.5.4" type="embed"><diagram id="TaX0pBRiU8FkAOaWx5gf" name="Page-1"><mxGraphModel dx="896" dy="702" grid="1" gridSize="10" guides="1" tooltips="1" connect="1" arrows="1" fold="1" page="1" pageScale="1" pageWidth="1600" pageHeight="1800" math="0" shadow="0"><root><mxCell id="0"/><mxCell id="1" parent="0"/><mxCell id="gJnul9rIhjVQMdWiqgAE-1" value="&lt;div&gt;Flow: open File&lt;/div&gt;" style="text;html=1;strokeColor=none;fillColor=none;align=center;verticalAlign=middle;whiteSpace=wrap;rounded=0;" parent="1" vertex="1"><mxGeometry x="40" y="10" width="120" height="30" as="geometry"/></mxCell><mxCell id="gJnul9rIhjVQMdWiqgAE-2" value="Load Data" style="swimlane;" parent="1" vertex="1"><mxGeometry x="40" y="80" width="1480" height="2400" as="geometry"/></mxCell><mxCell id="gJnul9rIhjVQMdWiqgAE-25" style="edgeStyle=orthogonalEdgeStyle;rounded=0;orthogonalLoop=1;jettySize=auto;html=1;" parent="gJnul9rIhjVQMdWiqgAE-2" source="gJnul9rIhjVQMdWiqgAE-3" target="gJnul9rIhjVQMdWiqgAE-15" edge="1"><mxGeometry relative="1" as="geometry"/></mxCell><mxCell id="gJnul9rIhjVQMdWiqgAE-3" value="File-Data" style="whiteSpace=wrap;html=1;aspect=fixed;" parent="gJnul9rIhjVQMdWiqgAE-2" vertex="1"><mxGeometry x="40" y="40" width="80" height="80" as="geometry"/></mxCell><mxCell id="gJnul9rIhjVQMdWiqgAE-23" style="edgeStyle=orthogonalEdgeStyle;rounded=0;orthogonalLoop=1;jettySize=auto;html=1;entryX=0.5;entryY=0;entryDx=0;entryDy=0;" parent="gJnul9rIhjVQMdWiqgAE-2" source="gJnul9rIhjVQMdWiqgAE-6" target="gJnul9rIhjVQMdWiqgAE-20" edge="1"><mxGeometry relative="1" as="geometry"/></mxCell><mxCell id="gJnul9rIhjVQMdWiqgAE-6" value="File-Password" style="whiteSpace=wrap;html=1;aspect=fixed;" parent="gJnul9rIhjVQMdWiqgAE-2" vertex="1"><mxGeometry x="40" y="160" width="80" height="80" as="geometry"/></mxCell><mxCell id="gJnul9rIhjVQMdWiqgAE-17" value="" style="group" parent="gJnul9rIhjVQMdWiqgAE-2" vertex="1" connectable="0"><mxGeometry x="160" y="37" width="210" height="85" as="geometry"/></mxCell><mxCell id="gJnul9rIhjVQMdWiqgAE-14" value="decrypt" style="shape=process;whiteSpace=wrap;html=1;backgroundOutline=1;" parent="gJnul9rIhjVQMdWiqgAE-17" vertex="1"><mxGeometry x="5" y="5" width="200" height="80" as="geometry"/></mxCell><mxCell id="gJnul9rIhjVQMdWiqgAE-15" value="bin" style="text;html=1;strokeColor=none;fillColor=none;align=center;verticalAlign=middle;whiteSpace=wrap;rounded=0;rotation=-90;" parent="gJnul9rIhjVQMdWiqgAE-17" vertex="1"><mxGeometry x="-27.5" y="27.5" width="85" height="30" as="geometry"/></mxCell><mxCell id="gJnul9rIhjVQMdWiqgAE-16" value="bin" style="text;html=1;strokeColor=none;fillColor=none;align=center;verticalAlign=middle;whiteSpace=wrap;rounded=0;rotation=-90;" parent="gJnul9rIhjVQMdWiqgAE-17" vertex="1"><mxGeometry x="152.5" y="27.5" width="85" height="30" as="geometry"/></mxCell><mxCell id="gJnul9rIhjVQMdWiqgAE-18" value="" style="group" parent="gJnul9rIhjVQMdWiqgAE-2" vertex="1" connectable="0"><mxGeometry x="160" y="157" width="120" height="85" as="geometry"/></mxCell><mxCell id="gJnul9rIhjVQMdWiqgAE-19" value="digest" style="shape=process;whiteSpace=wrap;html=1;backgroundOutline=1;" parent="gJnul9rIhjVQMdWiqgAE-18" vertex="1"><mxGeometry x="2.857142857142857" y="5" width="114.28571428571428" height="80" as="geometry"/></mxCell><mxCell id="gJnul9rIhjVQMdWiqgAE-20" value="string" style="text;html=1;strokeColor=none;fillColor=none;align=center;verticalAlign=middle;whiteSpace=wrap;rounded=0;rotation=-90;" parent="gJnul9rIhjVQMdWiqgAE-18" vertex="1"><mxGeometry x="-15.714285714285717" y="27.5" width="48.57142857142857" height="30" as="geometry"/></mxCell><mxCell id="gJnul9rIhjVQMdWiqgAE-21" value="bin" style="text;html=1;strokeColor=none;fillColor=none;align=center;verticalAlign=middle;whiteSpace=wrap;rounded=0;rotation=-90;" parent="gJnul9rIhjVQMdWiqgAE-18" vertex="1"><mxGeometry x="87.14285714285715" y="27.5" width="48.57142857142857" height="30" as="geometry"/></mxCell><mxCell id="gJnul9rIhjVQMdWiqgAE-24" style="edgeStyle=orthogonalEdgeStyle;rounded=0;orthogonalLoop=1;jettySize=auto;html=1;entryX=0.5;entryY=1;entryDx=0;entryDy=0;" parent="gJnul9rIhjVQMdWiqgAE-2" source="gJnul9rIhjVQMdWiqgAE-21" target="gJnul9rIhjVQMdWiqgAE-14" edge="1"><mxGeometry relative="1" as="geometry"/></mxCell><mxCell id="gJnul9rIhjVQMdWiqgAE-30" value="no" style="edgeStyle=orthogonalEdgeStyle;rounded=0;orthogonalLoop=1;jettySize=auto;html=1;entryX=0.5;entryY=0;entryDx=0;entryDy=0;" parent="gJnul9rIhjVQMdWiqgAE-2" source="gJnul9rIhjVQMdWiqgAE-26" target="gJnul9rIhjVQMdWiqgAE-29" edge="1"><mxGeometry relative="1" as="geometry"/></mxCell><mxCell id="gJnul9rIhjVQMdWiqgAE-35" style="edgeStyle=orthogonalEdgeStyle;rounded=0;orthogonalLoop=1;jettySize=auto;html=1;exitX=1;exitY=0.5;exitDx=0;exitDy=0;entryX=0.5;entryY=0;entryDx=0;entryDy=0;" parent="gJnul9rIhjVQMdWiqgAE-2" source="gJnul9rIhjVQMdWiqgAE-26" target="gJnul9rIhjVQMdWiqgAE-33" edge="1"><mxGeometry relative="1" as="geometry"><Array as="points"><mxPoint x="580" y="82"/><mxPoint x="580" y="280"/><mxPoint x="24" y="280"/><mxPoint x="24" y="475"/></Array></mxGeometry></mxCell><mxCell id="gJnul9rIhjVQMdWiqgAE-42" value="yes" style="edgeLabel;html=1;align=center;verticalAlign=middle;resizable=0;points=[];" parent="gJnul9rIhjVQMdWiqgAE-35" vertex="1" connectable="0"><mxGeometry x="-0.8534" y="-1" relative="1" as="geometry"><mxPoint as="offset"/></mxGeometry></mxCell><mxCell id="gJnul9rIhjVQMdWiqgAE-26" value="version supported" style="rhombus;whiteSpace=wrap;html=1;" parent="gJnul9rIhjVQMdWiqgAE-2" vertex="1"><mxGeometry x="480" y="40" width="80" height="80" as="geometry"/></mxCell><mxCell id="gJnul9rIhjVQMdWiqgAE-29" value="err; stop" style="ellipse;whiteSpace=wrap;html=1;aspect=fixed;" parent="gJnul9rIhjVQMdWiqgAE-2" vertex="1"><mxGeometry x="480" y="157" width="80" height="80" as="geometry"/></mxCell><mxCell id="gJnul9rIhjVQMdWiqgAE-32" value="" style="shape=process;whiteSpace=wrap;html=1;backgroundOutline=1;" parent="gJnul9rIhjVQMdWiqgAE-2" vertex="1"><mxGeometry x="40" y="320" width="1080" height="340" as="geometry"/></mxCell><mxCell id="gJnul9rIhjVQMdWiqgAE-36" value="read authors" style="text;html=1;strokeColor=none;fillColor=none;align=center;verticalAlign=middle;whiteSpace=wrap;rounded=0;glass=0;fontStyle=1" parent="gJnul9rIhjVQMdWiqgAE-2" vertex="1"><mxGeometry x="510" y="330" width="140" height="30" as="geometry"/></mxCell><mxCell id="gJnul9rIhjVQMdWiqgAE-46" style="edgeStyle=orthogonalEdgeStyle;rounded=0;orthogonalLoop=1;jettySize=auto;html=1;entryX=0;entryY=0.5;entryDx=0;entryDy=0;" parent="gJnul9rIhjVQMdWiqgAE-2" source="gJnul9rIhjVQMdWiqgAE-37" target="gJnul9rIhjVQMdWiqgAE-45" edge="1"><mxGeometry relative="1" as="geometry"/></mxCell><mxCell id="gJnul9rIhjVQMdWiqgAE-37" value="" style="rounded=1;whiteSpace=wrap;html=1;glass=0;" parent="gJnul9rIhjVQMdWiqgAE-2" vertex="1"><mxGeometry x="185" y="388" width="425" height="40" as="geometry"/></mxCell><mxCell id="gJnul9rIhjVQMdWiqgAE-69" style="edgeStyle=orthogonalEdgeStyle;rounded=0;orthogonalLoop=1;jettySize=auto;html=1;entryX=0;entryY=0.5;entryDx=0;entryDy=0;exitX=1;exitY=0.5;exitDx=0;exitDy=0;" parent="gJnul9rIhjVQMdWiqgAE-2" source="gJnul9rIhjVQMdWiqgAE-32" target="gJnul9rIhjVQMdWiqgAE-68" edge="1"><mxGeometry relative="1" as="geometry"><Array as="points"><mxPoint x="1160" y="490"/><mxPoint x="1160" y="680"/><mxPoint x="20" y="680"/><mxPoint x="20" y="750"/></Array></mxGeometry></mxCell><mxCell id="gJnul9rIhjVQMdWiqgAE-34" value="bin; List&amp;lt;Author&amp;gt;" style="text;html=1;strokeColor=none;fillColor=none;align=center;verticalAlign=middle;whiteSpace=wrap;rounded=0;rotation=-90;" parent="gJnul9rIhjVQMdWiqgAE-2" vertex="1"><mxGeometry x="990.0014285714285" y="460" width="194.28571428571428" height="60" as="geometry"/></mxCell><mxCell id="gJnul9rIhjVQMdWiqgAE-44" style="edgeStyle=orthogonalEdgeStyle;rounded=0;orthogonalLoop=1;jettySize=auto;html=1;exitX=0.5;exitY=1;exitDx=0;exitDy=0;entryX=0;entryY=0.5;entryDx=0;entryDy=0;" parent="gJnul9rIhjVQMdWiqgAE-2" source="gJnul9rIhjVQMdWiqgAE-33" target="gJnul9rIhjVQMdWiqgAE-37" edge="1"><mxGeometry relative="1" as="geometry"/></mxCell><mxCell id="gJnul9rIhjVQMdWiqgAE-48" style="edgeStyle=orthogonalEdgeStyle;rounded=0;orthogonalLoop=1;jettySize=auto;html=1;entryX=0;entryY=0.5;entryDx=0;entryDy=0;" parent="gJnul9rIhjVQMdWiqgAE-2" source="gJnul9rIhjVQMdWiqgAE-45" target="gJnul9rIhjVQMdWiqgAE-47" edge="1"><mxGeometry relative="1" as="geometry"/></mxCell><mxCell id="gJnul9rIhjVQMdWiqgAE-50" style="edgeStyle=orthogonalEdgeStyle;rounded=0;orthogonalLoop=1;jettySize=auto;html=1;exitX=1;exitY=0.5;exitDx=0;exitDy=0;entryX=0;entryY=0.5;entryDx=0;entryDy=0;" parent="gJnul9rIhjVQMdWiqgAE-2" source="gJnul9rIhjVQMdWiqgAE-47" target="gJnul9rIhjVQMdWiqgAE-49" edge="1"><mxGeometry relative="1" as="geometry"/></mxCell><mxCell id="gJnul9rIhjVQMdWiqgAE-52" value="no" style="edgeStyle=orthogonalEdgeStyle;rounded=0;orthogonalLoop=1;jettySize=auto;html=1;" parent="gJnul9rIhjVQMdWiqgAE-2" source="gJnul9rIhjVQMdWiqgAE-49" target="gJnul9rIhjVQMdWiqgAE-51" edge="1"><mxGeometry relative="1" as="geometry"/></mxCell><mxCell id="gJnul9rIhjVQMdWiqgAE-57" style="edgeStyle=orthogonalEdgeStyle;rounded=0;orthogonalLoop=1;jettySize=auto;html=1;exitX=1;exitY=0.5;exitDx=0;exitDy=0;entryX=0.5;entryY=0;entryDx=0;entryDy=0;" parent="gJnul9rIhjVQMdWiqgAE-2" source="gJnul9rIhjVQMdWiqgAE-49" target="gJnul9rIhjVQMdWiqgAE-56" edge="1"><mxGeometry relative="1" as="geometry"><Array as="points"><mxPoint x="1000" y="408"/><mxPoint x="1000" y="540"/><mxPoint x="950" y="540"/></Array></mxGeometry></mxCell><mxCell id="gJnul9rIhjVQMdWiqgAE-59" value="yes" style="edgeLabel;html=1;align=center;verticalAlign=middle;resizable=0;points=[];" parent="gJnul9rIhjVQMdWiqgAE-57" vertex="1" connectable="0"><mxGeometry x="-0.4762" y="-1" relative="1" as="geometry"><mxPoint as="offset"/></mxGeometry></mxCell><mxCell id="gJnul9rIhjVQMdWiqgAE-58" style="edgeStyle=orthogonalEdgeStyle;rounded=0;orthogonalLoop=1;jettySize=auto;html=1;entryX=0.5;entryY=0;entryDx=0;entryDy=0;" parent="gJnul9rIhjVQMdWiqgAE-2" source="gJnul9rIhjVQMdWiqgAE-51" target="gJnul9rIhjVQMdWiqgAE-56" edge="1"><mxGeometry relative="1" as="geometry"/></mxCell><mxCell id="gJnul9rIhjVQMdWiqgAE-60" style="edgeStyle=orthogonalEdgeStyle;rounded=0;orthogonalLoop=1;jettySize=auto;html=1;entryX=0;entryY=0.5;entryDx=0;entryDy=0;" parent="gJnul9rIhjVQMdWiqgAE-2" source="gJnul9rIhjVQMdWiqgAE-56" target="gJnul9rIhjVQMdWiqgAE-37" edge="1"><mxGeometry relative="1" as="geometry"/></mxCell><mxCell id="gJnul9rIhjVQMdWiqgAE-61" value="yes" style="edgeLabel;html=1;align=center;verticalAlign=middle;resizable=0;points=[];" parent="gJnul9rIhjVQMdWiqgAE-60" vertex="1" connectable="0"><mxGeometry x="-0.7693" relative="1" as="geometry"><mxPoint x="79" as="offset"/></mxGeometry></mxCell><mxCell id="gJnul9rIhjVQMdWiqgAE-62" value="no" style="edgeStyle=orthogonalEdgeStyle;rounded=0;orthogonalLoop=1;jettySize=auto;html=1;" parent="gJnul9rIhjVQMdWiqgAE-2" source="gJnul9rIhjVQMdWiqgAE-56" target="gJnul9rIhjVQMdWiqgAE-34" edge="1"><mxGeometry relative="1" as="geometry"/></mxCell><mxCell id="gJnul9rIhjVQMdWiqgAE-56" value="more data" style="rhombus;whiteSpace=wrap;html=1;glass=0;" parent="gJnul9rIhjVQMdWiqgAE-2" vertex="1"><mxGeometry x="910" y="559" width="80" height="80" as="geometry"/></mxCell><mxCell id="gJnul9rIhjVQMdWiqgAE-31" value="" style="group" parent="gJnul9rIhjVQMdWiqgAE-2" vertex="1" connectable="0"><mxGeometry x="31.43" y="390" width="480" height="170" as="geometry"/></mxCell><mxCell id="gJnul9rIhjVQMdWiqgAE-33" value="bin" style="text;html=1;strokeColor=none;fillColor=none;align=center;verticalAlign=middle;whiteSpace=wrap;rounded=0;rotation=-90;" parent="gJnul9rIhjVQMdWiqgAE-31" vertex="1"><mxGeometry x="-62.857142857142854" y="55" width="194.28571428571428" height="60" as="geometry"/></mxCell><mxCell id="gJnul9rIhjVQMdWiqgAE-67" style="edgeStyle=orthogonalEdgeStyle;rounded=0;orthogonalLoop=1;jettySize=auto;html=1;exitX=1;exitY=0.5;exitDx=0;exitDy=0;entryX=0;entryY=0.5;entryDx=0;entryDy=0;" parent="gJnul9rIhjVQMdWiqgAE-2" source="gJnul9rIhjVQMdWiqgAE-63" target="gJnul9rIhjVQMdWiqgAE-26" edge="1"><mxGeometry relative="1" as="geometry"/></mxCell><mxCell id="gJnul9rIhjVQMdWiqgAE-63" value="read Version" style="rounded=0;whiteSpace=wrap;html=1;glass=0;" parent="gJnul9rIhjVQMdWiqgAE-2" vertex="1"><mxGeometry x="382" y="50" width="80" height="60" as="geometry"/></mxCell><mxCell id="gJnul9rIhjVQMdWiqgAE-64" style="edgeStyle=orthogonalEdgeStyle;rounded=0;orthogonalLoop=1;jettySize=auto;html=1;exitX=0.5;exitY=1;exitDx=0;exitDy=0;entryX=0;entryY=0.5;entryDx=0;entryDy=0;" parent="gJnul9rIhjVQMdWiqgAE-2" source="gJnul9rIhjVQMdWiqgAE-16" target="gJnul9rIhjVQMdWiqgAE-63" edge="1"><mxGeometry relative="1" as="geometry"/></mxCell><mxCell id="gJnul9rIhjVQMdWiqgAE-76" style="edgeStyle=orthogonalEdgeStyle;rounded=0;orthogonalLoop=1;jettySize=auto;html=1;" parent="gJnul9rIhjVQMdWiqgAE-2" source="gJnul9rIhjVQMdWiqgAE-68" target="gJnul9rIhjVQMdWiqgAE-74" edge="1"><mxGeometry relative="1" as="geometry"/></mxCell><mxCell id="gJnul9rIhjVQMdWiqgAE-77" style="edgeStyle=orthogonalEdgeStyle;rounded=0;orthogonalLoop=1;jettySize=auto;html=1;entryX=0;entryY=0.5;entryDx=0;entryDy=0;" parent="gJnul9rIhjVQMdWiqgAE-2" source="gJnul9rIhjVQMdWiqgAE-68" target="gJnul9rIhjVQMdWiqgAE-75" edge="1"><mxGeometry relative="1" as="geometry"/></mxCell><mxCell id="gJnul9rIhjVQMdWiqgAE-68" value="read Genesis-Val" style="rounded=0;whiteSpace=wrap;html=1;glass=0;" parent="gJnul9rIhjVQMdWiqgAE-2" vertex="1"><mxGeometry x="40" y="720" width="120" height="60" as="geometry"/></mxCell><mxCell id="gJnul9rIhjVQMdWiqgAE-88" style="edgeStyle=orthogonalEdgeStyle;rounded=0;orthogonalLoop=1;jettySize=auto;html=1;entryX=0.5;entryY=0;entryDx=0;entryDy=0;exitX=1;exitY=0.5;exitDx=0;exitDy=0;" parent="gJnul9rIhjVQMdWiqgAE-2" source="gJnul9rIhjVQMdWiqgAE-74" target="gJnul9rIhjVQMdWiqgAE-80" edge="1"><mxGeometry relative="1" as="geometry"><Array as="points"><mxPoint x="1170" y="840"/><mxPoint x="1170" y="1420"/><mxPoint x="900" y="1420"/></Array></mxGeometry></mxCell><mxCell id="gJnul9rIhjVQMdWiqgAE-74" value="" style="shape=process;whiteSpace=wrap;html=1;backgroundOutline=1;glass=0;" parent="gJnul9rIhjVQMdWiqgAE-2" vertex="1"><mxGeometry x="243" y="720" width="877" height="240" as="geometry"/></mxCell><mxCell id="gJnul9rIhjVQMdWiqgAE-75" value="" style="shape=process;whiteSpace=wrap;html=1;backgroundOutline=1;glass=0;" parent="gJnul9rIhjVQMdWiqgAE-2" vertex="1"><mxGeometry x="243" y="1040" width="877" height="360" as="geometry"/></mxCell><mxCell id="gJnul9rIhjVQMdWiqgAE-78" value="read Addendum" style="text;html=1;strokeColor=none;fillColor=none;align=center;verticalAlign=middle;whiteSpace=wrap;rounded=0;glass=0;fontStyle=1" parent="gJnul9rIhjVQMdWiqgAE-2" vertex="1"><mxGeometry x="600" y="735" width="112" height="30" as="geometry"/></mxCell><mxCell id="gJnul9rIhjVQMdWiqgAE-79" value="read Vote" style="text;html=1;strokeColor=none;fillColor=none;align=center;verticalAlign=middle;whiteSpace=wrap;rounded=0;glass=0;fontStyle=1" parent="gJnul9rIhjVQMdWiqgAE-2" vertex="1"><mxGeometry x="652" y="1060" width="60" height="30" as="geometry"/></mxCell><mxCell id="gJnul9rIhjVQMdWiqgAE-81" style="edgeStyle=orthogonalEdgeStyle;rounded=0;orthogonalLoop=1;jettySize=auto;html=1;entryX=0;entryY=0.5;entryDx=0;entryDy=0;" parent="gJnul9rIhjVQMdWiqgAE-2" source="gJnul9rIhjVQMdWiqgAE-80" target="gJnul9rIhjVQMdWiqgAE-74" edge="1"><mxGeometry relative="1" as="geometry"><Array as="points"><mxPoint x="170" y="1600"/><mxPoint x="170" y="840"/></Array></mxGeometry></mxCell><mxCell id="gJnul9rIhjVQMdWiqgAE-82" style="edgeStyle=orthogonalEdgeStyle;rounded=0;orthogonalLoop=1;jettySize=auto;html=1;exitX=0;exitY=0.5;exitDx=0;exitDy=0;entryX=0;entryY=0.5;entryDx=0;entryDy=0;" parent="gJnul9rIhjVQMdWiqgAE-2" source="gJnul9rIhjVQMdWiqgAE-80" target="gJnul9rIhjVQMdWiqgAE-75" edge="1"><mxGeometry relative="1" as="geometry"><Array as="points"><mxPoint x="200" y="1600"/><mxPoint x="200" y="1220"/></Array></mxGeometry></mxCell><mxCell id="gJnul9rIhjVQMdWiqgAE-83" value="yes" style="edgeLabel;html=1;align=center;verticalAlign=middle;resizable=0;points=[];" parent="gJnul9rIhjVQMdWiqgAE-82" vertex="1" connectable="0"><mxGeometry x="-0.946" y="-1" relative="1" as="geometry"><mxPoint as="offset"/></mxGeometry></mxCell><mxCell id="gJnul9rIhjVQMdWiqgAE-86" style="edgeStyle=orthogonalEdgeStyle;rounded=0;orthogonalLoop=1;jettySize=auto;html=1;entryX=0;entryY=0.5;entryDx=0;entryDy=0;" parent="gJnul9rIhjVQMdWiqgAE-2" source="gJnul9rIhjVQMdWiqgAE-80" target="gJnul9rIhjVQMdWiqgAE-84" edge="1"><mxGeometry relative="1" as="geometry"/></mxCell><mxCell id="gJnul9rIhjVQMdWiqgAE-87" value="no" style="edgeLabel;html=1;align=center;verticalAlign=middle;resizable=0;points=[];" parent="gJnul9rIhjVQMdWiqgAE-86" vertex="1" connectable="0"><mxGeometry x="-0.7096" y="2" relative="1" as="geometry"><mxPoint as="offset"/></mxGeometry></mxCell><mxCell id="gJnul9rIhjVQMdWiqgAE-80" value="more data" style="rhombus;whiteSpace=wrap;html=1;glass=0;" parent="gJnul9rIhjVQMdWiqgAE-2" vertex="1"><mxGeometry x="860" y="1560" width="80" height="80" as="geometry"/></mxCell><mxCell id="gJnul9rIhjVQMdWiqgAE-139" style="edgeStyle=orthogonalEdgeStyle;rounded=0;orthogonalLoop=1;jettySize=auto;html=1;exitX=1;exitY=0.5;exitDx=0;exitDy=0;entryX=0.5;entryY=0;entryDx=0;entryDy=0;" parent="gJnul9rIhjVQMdWiqgAE-2" source="gJnul9rIhjVQMdWiqgAE-84" target="gJnul9rIhjVQMdWiqgAE-138" edge="1"><mxGeometry relative="1" as="geometry"/></mxCell><mxCell id="gJnul9rIhjVQMdWiqgAE-84" value="" style="shape=process;whiteSpace=wrap;html=1;backgroundOutline=1;glass=0;" parent="gJnul9rIhjVQMdWiqgAE-2" vertex="1"><mxGeometry x="123" y="1880" width="1217" height="290" as="geometry"/></mxCell><mxCell id="gJnul9rIhjVQMdWiqgAE-85" value="validate" style="text;html=1;strokeColor=none;fillColor=none;align=center;verticalAlign=middle;whiteSpace=wrap;rounded=0;glass=0;fontStyle=1" parent="gJnul9rIhjVQMdWiqgAE-2" vertex="1"><mxGeometry x="612" y="1890" width="60" height="30" as="geometry"/></mxCell><mxCell id="gJnul9rIhjVQMdWiqgAE-99" style="edgeStyle=orthogonalEdgeStyle;rounded=0;orthogonalLoop=1;jettySize=auto;html=1;exitX=1;exitY=0.5;exitDx=0;exitDy=0;entryX=0;entryY=0.5;entryDx=0;entryDy=0;" parent="gJnul9rIhjVQMdWiqgAE-2" source="gJnul9rIhjVQMdWiqgAE-93" target="gJnul9rIhjVQMdWiqgAE-96" edge="1"><mxGeometry relative="1" as="geometry"/></mxCell><mxCell id="gJnul9rIhjVQMdWiqgAE-93" value="hash frame" style="rounded=0;whiteSpace=wrap;html=1;glass=0;" parent="gJnul9rIhjVQMdWiqgAE-2" vertex="1"><mxGeometry x="712" y="780" width="110" height="35" as="geometry"/></mxCell><mxCell id="gJnul9rIhjVQMdWiqgAE-98" style="edgeStyle=orthogonalEdgeStyle;rounded=0;orthogonalLoop=1;jettySize=auto;html=1;exitX=1;exitY=0.5;exitDx=0;exitDy=0;entryX=0;entryY=0.5;entryDx=0;entryDy=0;" parent="gJnul9rIhjVQMdWiqgAE-2" source="gJnul9rIhjVQMdWiqgAE-94" target="gJnul9rIhjVQMdWiqgAE-93" edge="1"><mxGeometry relative="1" as="geometry"/></mxCell><mxCell id="gJnul9rIhjVQMdWiqgAE-94" value="" style="rounded=1;whiteSpace=wrap;html=1;glass=0;" parent="gJnul9rIhjVQMdWiqgAE-2" vertex="1"><mxGeometry x="341" y="765" width="358" height="65" as="geometry"/></mxCell><mxCell id="gJnul9rIhjVQMdWiqgAE-90" value="read hash_prev_frame" style="rounded=0;whiteSpace=wrap;html=1;glass=0;" parent="gJnul9rIhjVQMdWiqgAE-2" vertex="1"><mxGeometry x="348" y="780" width="128" height="35" as="geometry"/></mxCell><mxCell id="gJnul9rIhjVQMdWiqgAE-91" value="read ..." style="rounded=0;whiteSpace=wrap;html=1;glass=0;" parent="gJnul9rIhjVQMdWiqgAE-2" vertex="1"><mxGeometry x="476" y="780" width="108" height="35" as="geometry"/></mxCell><mxCell id="gJnul9rIhjVQMdWiqgAE-95" value="read hash of frame" style="rounded=0;whiteSpace=wrap;html=1;glass=0;" parent="gJnul9rIhjVQMdWiqgAE-2" vertex="1"><mxGeometry x="581" y="780" width="108" height="35" as="geometry"/></mxCell><mxCell id="gJnul9rIhjVQMdWiqgAE-100" value="no" style="edgeStyle=orthogonalEdgeStyle;rounded=0;orthogonalLoop=1;jettySize=auto;html=1;" parent="gJnul9rIhjVQMdWiqgAE-2" source="gJnul9rIhjVQMdWiqgAE-96" target="gJnul9rIhjVQMdWiqgAE-97" edge="1"><mxGeometry relative="1" as="geometry"/></mxCell><mxCell id="gJnul9rIhjVQMdWiqgAE-103" value="yes" style="edgeStyle=orthogonalEdgeStyle;rounded=0;orthogonalLoop=1;jettySize=auto;html=1;exitX=1;exitY=0.5;exitDx=0;exitDy=0;entryX=0.5;entryY=0;entryDx=0;entryDy=0;" parent="gJnul9rIhjVQMdWiqgAE-2" source="gJnul9rIhjVQMdWiqgAE-96" target="gJnul9rIhjVQMdWiqgAE-101" edge="1"><mxGeometry relative="1" as="geometry"/></mxCell><mxCell id="gJnul9rIhjVQMdWiqgAE-96" value="hashes match" style="rhombus;whiteSpace=wrap;html=1;glass=0;" parent="gJnul9rIhjVQMdWiqgAE-2" vertex="1"><mxGeometry x="840" y="758" width="100" height="80" as="geometry"/></mxCell><mxCell id="gJnul9rIhjVQMdWiqgAE-97" value="warn; drop" style="ellipse;whiteSpace=wrap;html=1;aspect=fixed;glass=0;" parent="gJnul9rIhjVQMdWiqgAE-2" vertex="1"><mxGeometry x="850" y="870" width="80" height="80" as="geometry"/></mxCell><mxCell id="gJnul9rIhjVQMdWiqgAE-102" style="edgeStyle=orthogonalEdgeStyle;rounded=0;orthogonalLoop=1;jettySize=auto;html=1;entryX=1;entryY=0.5;entryDx=0;entryDy=0;exitX=1;exitY=0.382;exitDx=0;exitDy=0;exitPerimeter=0;" parent="gJnul9rIhjVQMdWiqgAE-2" source="gJnul9rIhjVQMdWiqgAE-101" target="gJnul9rIhjVQMdWiqgAE-74" edge="1"><mxGeometry relative="1" as="geometry"><Array as="points"><mxPoint x="990" y="840"/></Array></mxGeometry></mxCell><mxCell id="gJnul9rIhjVQMdWiqgAE-101" value="save as Obj" style="rounded=0;whiteSpace=wrap;html=1;glass=0;" parent="gJnul9rIhjVQMdWiqgAE-2" vertex="1"><mxGeometry x="940" y="820" width="80" height="55" as="geometry"/></mxCell><mxCell id="gJnul9rIhjVQMdWiqgAE-113" style="edgeStyle=orthogonalEdgeStyle;rounded=0;orthogonalLoop=1;jettySize=auto;html=1;exitX=1;exitY=0.5;exitDx=0;exitDy=0;entryX=0;entryY=0.5;entryDx=0;entryDy=0;" parent="gJnul9rIhjVQMdWiqgAE-2" source="gJnul9rIhjVQMdWiqgAE-107" target="gJnul9rIhjVQMdWiqgAE-108" edge="1"><mxGeometry relative="1" as="geometry"/></mxCell><mxCell id="gJnul9rIhjVQMdWiqgAE-107" value="" style="rounded=1;whiteSpace=wrap;html=1;glass=0;" parent="gJnul9rIhjVQMdWiqgAE-2" vertex="1"><mxGeometry x="341" y="1097" width="459" height="65" as="geometry"/></mxCell><mxCell id="gJnul9rIhjVQMdWiqgAE-114" style="edgeStyle=orthogonalEdgeStyle;rounded=0;orthogonalLoop=1;jettySize=auto;html=1;exitX=1;exitY=0.5;exitDx=0;exitDy=0;entryX=0.5;entryY=0;entryDx=0;entryDy=0;" parent="gJnul9rIhjVQMdWiqgAE-2" source="gJnul9rIhjVQMdWiqgAE-108" target="gJnul9rIhjVQMdWiqgAE-109" edge="1"><mxGeometry relative="1" as="geometry"/></mxCell><mxCell id="gJnul9rIhjVQMdWiqgAE-108" value="hash frame" style="rounded=0;whiteSpace=wrap;html=1;glass=0;" parent="gJnul9rIhjVQMdWiqgAE-2" vertex="1"><mxGeometry x="819.5" y="1112" width="110" height="35" as="geometry"/></mxCell><mxCell id="gJnul9rIhjVQMdWiqgAE-115" value="no" style="edgeStyle=orthogonalEdgeStyle;rounded=0;orthogonalLoop=1;jettySize=auto;html=1;exitX=0.5;exitY=1;exitDx=0;exitDy=0;entryX=0.5;entryY=0;entryDx=0;entryDy=0;" parent="gJnul9rIhjVQMdWiqgAE-2" source="gJnul9rIhjVQMdWiqgAE-109" target="gJnul9rIhjVQMdWiqgAE-111" edge="1"><mxGeometry relative="1" as="geometry"/></mxCell><mxCell id="gJnul9rIhjVQMdWiqgAE-117" style="edgeStyle=orthogonalEdgeStyle;rounded=0;orthogonalLoop=1;jettySize=auto;html=1;entryX=0;entryY=0.5;entryDx=0;entryDy=0;" parent="gJnul9rIhjVQMdWiqgAE-2" source="gJnul9rIhjVQMdWiqgAE-109" target="gJnul9rIhjVQMdWiqgAE-116" edge="1"><mxGeometry relative="1" as="geometry"/></mxCell><mxCell id="gJnul9rIhjVQMdWiqgAE-109" value="hashes match" style="rhombus;whiteSpace=wrap;html=1;glass=0;" parent="gJnul9rIhjVQMdWiqgAE-2" vertex="1"><mxGeometry x="347.5" y="1190" width="100" height="80" as="geometry"/></mxCell><mxCell id="gJnul9rIhjVQMdWiqgAE-123" style="edgeStyle=orthogonalEdgeStyle;rounded=0;orthogonalLoop=1;jettySize=auto;html=1;exitX=1;exitY=0.5;exitDx=0;exitDy=0;entryX=1.003;entryY=0.326;entryDx=0;entryDy=0;entryPerimeter=0;" parent="gJnul9rIhjVQMdWiqgAE-2" source="gJnul9rIhjVQMdWiqgAE-110" target="gJnul9rIhjVQMdWiqgAE-75" edge="1"><mxGeometry relative="1" as="geometry"><Array as="points"><mxPoint x="1010" y="1230"/><mxPoint x="1010" y="1157"/></Array></mxGeometry></mxCell><mxCell id="gJnul9rIhjVQMdWiqgAE-110" value="save as Obj" style="rounded=0;whiteSpace=wrap;html=1;glass=0;" parent="gJnul9rIhjVQMdWiqgAE-2" vertex="1"><mxGeometry x="870" y="1202.5" width="80" height="55" as="geometry"/></mxCell><mxCell id="gJnul9rIhjVQMdWiqgAE-111" value="warn; drop" style="ellipse;whiteSpace=wrap;html=1;aspect=fixed;glass=0;" parent="gJnul9rIhjVQMdWiqgAE-2" vertex="1"><mxGeometry x="357.5" y="1295" width="80" height="80" as="geometry"/></mxCell><mxCell id="gJnul9rIhjVQMdWiqgAE-104" value="read hash_prev_frame" style="rounded=0;whiteSpace=wrap;html=1;glass=0;" parent="gJnul9rIhjVQMdWiqgAE-2" vertex="1"><mxGeometry x="347.5" y="1112" width="128" height="35" as="geometry"/></mxCell><mxCell id="gJnul9rIhjVQMdWiqgAE-105" value="read ..." style="rounded=0;whiteSpace=wrap;html=1;glass=0;" parent="gJnul9rIhjVQMdWiqgAE-2" vertex="1"><mxGeometry x="475.5" y="1112" width="108" height="35" as="geometry"/></mxCell><mxCell id="gJnul9rIhjVQMdWiqgAE-106" value="read hash of frame" style="rounded=0;whiteSpace=wrap;html=1;glass=0;" parent="gJnul9rIhjVQMdWiqgAE-2" vertex="1"><mxGeometry x="580.5" y="1112" width="108" height="35" as="geometry"/></mxCell><mxCell id="gJnul9rIhjVQMdWiqgAE-112" value="read signature" style="rounded=0;whiteSpace=wrap;html=1;glass=0;" parent="gJnul9rIhjVQMdWiqgAE-2" vertex="1"><mxGeometry x="689" y="1112" width="101" height="35" as="geometry"/></mxCell><mxCell id="gJnul9rIhjVQMdWiqgAE-121" style="edgeStyle=orthogonalEdgeStyle;rounded=0;orthogonalLoop=1;jettySize=auto;html=1;entryX=0;entryY=0.5;entryDx=0;entryDy=0;" parent="gJnul9rIhjVQMdWiqgAE-2" source="gJnul9rIhjVQMdWiqgAE-116" target="gJnul9rIhjVQMdWiqgAE-118" edge="1"><mxGeometry relative="1" as="geometry"/></mxCell><mxCell id="gJnul9rIhjVQMdWiqgAE-116" value="verify signature" style="rounded=0;whiteSpace=wrap;html=1;glass=0;" parent="gJnul9rIhjVQMdWiqgAE-2" vertex="1"><mxGeometry x="480" y="1200" width="120" height="60" as="geometry"/></mxCell><mxCell id="gJnul9rIhjVQMdWiqgAE-120" value="no" style="edgeStyle=orthogonalEdgeStyle;rounded=0;orthogonalLoop=1;jettySize=auto;html=1;entryX=0.5;entryY=0;entryDx=0;entryDy=0;" parent="gJnul9rIhjVQMdWiqgAE-2" source="gJnul9rIhjVQMdWiqgAE-118" target="gJnul9rIhjVQMdWiqgAE-119" edge="1"><mxGeometry relative="1" as="geometry"/></mxCell><mxCell id="gJnul9rIhjVQMdWiqgAE-122" value="yes" style="edgeStyle=orthogonalEdgeStyle;rounded=0;orthogonalLoop=1;jettySize=auto;html=1;" parent="gJnul9rIhjVQMdWiqgAE-2" source="gJnul9rIhjVQMdWiqgAE-118" target="gJnul9rIhjVQMdWiqgAE-110" edge="1"><mxGeometry relative="1" as="geometry"/></mxCell><mxCell id="gJnul9rIhjVQMdWiqgAE-118" value="signature valid" style="rhombus;whiteSpace=wrap;html=1;glass=0;" parent="gJnul9rIhjVQMdWiqgAE-2" vertex="1"><mxGeometry x="642" y="1190" width="108" height="80" as="geometry"/></mxCell><mxCell id="gJnul9rIhjVQMdWiqgAE-119" value="warn; drop" style="ellipse;whiteSpace=wrap;html=1;aspect=fixed;glass=0;" parent="gJnul9rIhjVQMdWiqgAE-2" vertex="1"><mxGeometry x="656" y="1295" width="80" height="80" as="geometry"/></mxCell><mxCell id="gJnul9rIhjVQMdWiqgAE-133" style="edgeStyle=orthogonalEdgeStyle;rounded=0;orthogonalLoop=1;jettySize=auto;html=1;entryX=0;entryY=0.5;entryDx=0;entryDy=0;" parent="gJnul9rIhjVQMdWiqgAE-2" source="gJnul9rIhjVQMdWiqgAE-124" target="gJnul9rIhjVQMdWiqgAE-132" edge="1"><mxGeometry relative="1" as="geometry"/></mxCell><mxCell id="gJnul9rIhjVQMdWiqgAE-124" value="order frames by&lt;br&gt;hash-chain" style="rounded=0;whiteSpace=wrap;html=1;glass=0;" parent="gJnul9rIhjVQMdWiqgAE-2" vertex="1"><mxGeometry x="253" y="1960" width="120" height="60" as="geometry"/></mxCell><mxCell id="gJnul9rIhjVQMdWiqgAE-135" style="edgeStyle=orthogonalEdgeStyle;rounded=0;orthogonalLoop=1;jettySize=auto;html=1;exitX=1;exitY=0.5;exitDx=0;exitDy=0;entryX=0;entryY=0.5;entryDx=0;entryDy=0;" parent="gJnul9rIhjVQMdWiqgAE-2" source="gJnul9rIhjVQMdWiqgAE-132" target="gJnul9rIhjVQMdWiqgAE-134" edge="1"><mxGeometry relative="1" as="geometry"/></mxCell><mxCell id="gJnul9rIhjVQMdWiqgAE-132" value="" style="rounded=1;whiteSpace=wrap;html=1;glass=0;" parent="gJnul9rIhjVQMdWiqgAE-2" vertex="1"><mxGeometry x="390" y="1915" width="670" height="150" as="geometry"/></mxCell><mxCell id="gJnul9rIhjVQMdWiqgAE-125" value="&lt;div&gt;check if every frame (+ genesis) has exactly one child&lt;/div&gt;&lt;div&gt;(except the last frame)&lt;br&gt;&lt;/div&gt;" style="rounded=0;whiteSpace=wrap;html=1;glass=0;" parent="gJnul9rIhjVQMdWiqgAE-2" vertex="1"><mxGeometry x="407" y="1925" width="208" height="60" as="geometry"/></mxCell><mxCell id="gJnul9rIhjVQMdWiqgAE-126" value="check if every timestamp is ascending" style="rounded=0;whiteSpace=wrap;html=1;glass=0;" parent="gJnul9rIhjVQMdWiqgAE-2" vertex="1"><mxGeometry x="625" y="1925" width="160" height="60" as="geometry"/></mxCell><mxCell id="gJnul9rIhjVQMdWiqgAE-127" value="check if every vote target_addendum exists" style="rounded=0;whiteSpace=wrap;html=1;glass=0;" parent="gJnul9rIhjVQMdWiqgAE-2" vertex="1"><mxGeometry x="795" y="1925" width="120" height="60" as="geometry"/></mxCell><mxCell id="gJnul9rIhjVQMdWiqgAE-128" value="check if every author_ref is valid" style="rounded=0;whiteSpace=wrap;html=1;glass=0;" parent="gJnul9rIhjVQMdWiqgAE-2" vertex="1"><mxGeometry x="925" y="1925" width="120" height="60" as="geometry"/></mxCell><mxCell id="gJnul9rIhjVQMdWiqgAE-129" value="check if every addendum has &amp;gt;= 1 vote" style="rounded=0;whiteSpace=wrap;html=1;glass=0;" parent="gJnul9rIhjVQMdWiqgAE-2" vertex="1"><mxGeometry x="407" y="2000" width="120" height="60" as="geometry"/></mxCell><mxCell id="gJnul9rIhjVQMdWiqgAE-130" value="check if user-clock is behind timestamp of last addendum" style="rounded=0;whiteSpace=wrap;html=1;glass=0;" parent="gJnul9rIhjVQMdWiqgAE-2" vertex="1"><mxGeometry x="540" y="2000" width="120" height="60" as="geometry"/></mxCell><mxCell id="gJnul9rIhjVQMdWiqgAE-131" value="check if author-sign_count match" style="rounded=0;whiteSpace=wrap;html=1;glass=0;" parent="gJnul9rIhjVQMdWiqgAE-2" vertex="1"><mxGeometry x="670" y="2000" width="120" height="60" as="geometry"/></mxCell><mxCell id="gJnul9rIhjVQMdWiqgAE-137" value="no" style="edgeStyle=orthogonalEdgeStyle;rounded=0;orthogonalLoop=1;jettySize=auto;html=1;exitX=0.5;exitY=1;exitDx=0;exitDy=0;entryX=0.5;entryY=0;entryDx=0;entryDy=0;" parent="gJnul9rIhjVQMdWiqgAE-2" source="gJnul9rIhjVQMdWiqgAE-134" target="gJnul9rIhjVQMdWiqgAE-136" edge="1"><mxGeometry relative="1" as="geometry"/></mxCell><mxCell id="gJnul9rIhjVQMdWiqgAE-140" value="yes" style="edgeStyle=orthogonalEdgeStyle;rounded=0;orthogonalLoop=1;jettySize=auto;html=1;exitX=1;exitY=0.5;exitDx=0;exitDy=0;entryX=1;entryY=0.5;entryDx=0;entryDy=0;" parent="gJnul9rIhjVQMdWiqgAE-2" source="gJnul9rIhjVQMdWiqgAE-134" target="gJnul9rIhjVQMdWiqgAE-84" edge="1"><mxGeometry x="-0.6102" relative="1" as="geometry"><Array as="points"><mxPoint x="1190" y="1990"/><mxPoint x="1190" y="2025"/></Array><mxPoint as="offset"/></mxGeometry></mxCell><mxCell id="gJnul9rIhjVQMdWiqgAE-134" value="all valid" style="rhombus;whiteSpace=wrap;html=1;glass=0;" parent="gJnul9rIhjVQMdWiqgAE-2" vertex="1"><mxGeometry x="1090" y="1950" width="80" height="80" as="geometry"/></mxCell><mxCell id="gJnul9rIhjVQMdWiqgAE-136" value="warn; stop" style="ellipse;whiteSpace=wrap;html=1;aspect=fixed;glass=0;" parent="gJnul9rIhjVQMdWiqgAE-2" vertex="1"><mxGeometry x="1090" y="2070" width="80" height="80" as="geometry"/></mxCell><mxCell id="gJnul9rIhjVQMdWiqgAE-138" value="end" style="ellipse;whiteSpace=wrap;html=1;aspect=fixed;glass=0;" parent="gJnul9rIhjVQMdWiqgAE-2" vertex="1"><mxGeometry x="1370" y="2260" width="80" height="80" as="geometry"/></mxCell><mxCell id="2" value="" style="rounded=1;whiteSpace=wrap;html=1;fillColor=none;" vertex="1" parent="gJnul9rIhjVQMdWiqgAE-2"><mxGeometry x="180.5" y="360" width="809.5" height="168" as="geometry"/></mxCell><mxCell id="gJnul9rIhjVQMdWiqgAE-143" style="edgeStyle=orthogonalEdgeStyle;rounded=0;orthogonalLoop=1;jettySize=auto;html=1;entryX=0;entryY=0.5;entryDx=0;entryDy=0;" parent="gJnul9rIhjVQMdWiqgAE-2" source="gJnul9rIhjVQMdWiqgAE-142" target="gJnul9rIhjVQMdWiqgAE-107" edge="1"><mxGeometry relative="1" as="geometry"/></mxCell><mxCell id="gJnul9rIhjVQMdWiqgAE-142" value="&amp;nbsp;" style="text;html=1;strokeColor=none;fillColor=none;align=center;verticalAlign=middle;whiteSpace=wrap;rounded=0;glass=0;" parent="gJnul9rIhjVQMdWiqgAE-2" vertex="1"><mxGeometry x="247" y="1205" width="3" height="30" as="geometry"/></mxCell><mxCell id="gJnul9rIhjVQMdWiqgAE-145" style="edgeStyle=orthogonalEdgeStyle;rounded=0;orthogonalLoop=1;jettySize=auto;html=1;entryX=0;entryY=0.5;entryDx=0;entryDy=0;" parent="gJnul9rIhjVQMdWiqgAE-2" source="gJnul9rIhjVQMdWiqgAE-144" target="gJnul9rIhjVQMdWiqgAE-94" edge="1"><mxGeometry relative="1" as="geometry"/></mxCell><mxCell id="gJnul9rIhjVQMdWiqgAE-144" value="&amp;nbsp;" style="text;html=1;strokeColor=none;fillColor=none;align=center;verticalAlign=middle;whiteSpace=wrap;rounded=0;glass=0;" parent="gJnul9rIhjVQMdWiqgAE-2" vertex="1"><mxGeometry x="245" y="825" width="10" height="30" as="geometry"/></mxCell><mxCell id="gJnul9rIhjVQMdWiqgAE-147" style="edgeStyle=orthogonalEdgeStyle;rounded=0;orthogonalLoop=1;jettySize=auto;html=1;entryX=0;entryY=0.5;entryDx=0;entryDy=0;" parent="gJnul9rIhjVQMdWiqgAE-2" source="gJnul9rIhjVQMdWiqgAE-146" target="gJnul9rIhjVQMdWiqgAE-124" edge="1"><mxGeometry relative="1" as="geometry"/></mxCell><mxCell id="gJnul9rIhjVQMdWiqgAE-146" value="&amp;nbsp;" style="text;html=1;strokeColor=none;fillColor=none;align=center;verticalAlign=middle;whiteSpace=wrap;rounded=0;glass=0;" parent="gJnul9rIhjVQMdWiqgAE-2" vertex="1"><mxGeometry x="125" y="2010" width="5" height="30" as="geometry"/></mxCell><mxCell id="gJnul9rIhjVQMdWiqgAE-38" value="read name" style="rounded=0;whiteSpace=wrap;html=1;glass=0;" parent="gJnul9rIhjVQMdWiqgAE-2" vertex="1"><mxGeometry x="198" y="398" width="70" height="20" as="geometry"/></mxCell><mxCell id="gJnul9rIhjVQMdWiqgAE-39" value="read mail" style="rounded=0;whiteSpace=wrap;html=1;glass=0;" parent="gJnul9rIhjVQMdWiqgAE-2" vertex="1"><mxGeometry x="268" y="398" width="70" height="20" as="geometry"/></mxCell><mxCell id="gJnul9rIhjVQMdWiqgAE-40" value="read pub-key" style="rounded=0;whiteSpace=wrap;html=1;glass=0;" parent="gJnul9rIhjVQMdWiqgAE-2" vertex="1"><mxGeometry x="338" y="398" width="80" height="20" as="geometry"/></mxCell><mxCell id="gJnul9rIhjVQMdWiqgAE-41" value="read sign_count" style="rounded=0;whiteSpace=wrap;html=1;glass=0;" parent="gJnul9rIhjVQMdWiqgAE-2" vertex="1"><mxGeometry x="418" y="398" width="92" height="20" as="geometry"/></mxCell><mxCell id="gJnul9rIhjVQMdWiqgAE-43" value="read signature" style="rounded=0;whiteSpace=wrap;html=1;glass=0;" parent="gJnul9rIhjVQMdWiqgAE-2" vertex="1"><mxGeometry x="510" y="398" width="90" height="20" as="geometry"/></mxCell><mxCell id="gJnul9rIhjVQMdWiqgAE-45" value="Author" style="whiteSpace=wrap;html=1;aspect=fixed;glass=0;" parent="gJnul9rIhjVQMdWiqgAE-2" vertex="1"><mxGeometry x="640" y="368" width="80" height="80" as="geometry"/></mxCell><mxCell id="gJnul9rIhjVQMdWiqgAE-47" value="verify signature" style="rounded=0;whiteSpace=wrap;html=1;glass=0;" parent="gJnul9rIhjVQMdWiqgAE-2" vertex="1"><mxGeometry x="750" y="378" width="120" height="60" as="geometry"/></mxCell><mxCell id="gJnul9rIhjVQMdWiqgAE-49" value="valid" style="rhombus;whiteSpace=wrap;html=1;glass=0;" parent="gJnul9rIhjVQMdWiqgAE-2" vertex="1"><mxGeometry x="900" y="368" width="80" height="80" as="geometry"/></mxCell><mxCell id="gJnul9rIhjVQMdWiqgAE-51" value="warn" style="ellipse;whiteSpace=wrap;html=1;aspect=fixed;glass=0;" parent="gJnul9rIhjVQMdWiqgAE-2" vertex="1"><mxGeometry x="915" y="468" width="50" height="50" as="geometry"/></mxCell><mxCell id="gJnul9rIhjVQMdWiqgAE-89" style="edgeStyle=orthogonalEdgeStyle;rounded=0;orthogonalLoop=1;jettySize=auto;html=1;" parent="1" source="gJnul9rIhjVQMdWiqgAE-75" edge="1"><mxGeometry relative="1" as="geometry"><mxPoint x="940" y="1640" as="targetPoint"/><Array as="points"><mxPoint x="1210" y="1235"/><mxPoint x="1210" y="1495"/><mxPoint x="940" y="1495"/></Array></mxGeometry></mxCell></root></mxGraphModel></diagram></mxfile>